<svg xmlns="http://www.w3.org/2000/svg" xmlns:xlink="http://www.w3.org/1999/xlink" xml:space="preserve" version="1.1" style="shape-rendering:geometricPrecision;text-rendering:geometricPrecision;image-rendering:optimizeQuality;" viewBox="0 0 2540 3175" x="0px" y="0px" fill-rule="evenodd" clip-rule="evenodd"><defs><style type="text/css">
   
    .fil0 {fill:black}
   
  </style></defs><g><path class="fil0" d="M2265 1270c0,549 -446,995 -995,995 -549,0 -995,-446 -995,-995 0,-549 446,-995 995,-995 549,0 995,446 995,995zm-1585 250l137 0c23,0 41,18 41,41l0 60c0,22 -18,41 -41,41l-137 0c-23,0 -41,-19 -41,-41l0 -60c0,-23 18,-41 41,-41zm261 0l137 0c23,0 41,18 41,41l0 60c0,22 -18,41 -41,41l-137 0c-23,0 -41,-19 -42,-41l1 -60c0,-23 18,-41 41,-41zm260 0l138 0c22,0 41,18 41,41l0 60c0,22 -19,41 -41,41l-138 0c-22,0 -41,-19 -41,-41l0 -60c0,-23 19,-41 41,-41zm261 0l137 0c23,0 42,18 42,41l0 60c0,22 -19,41 -42,41l-137 0c-22,0 -41,-19 -41,-41l0 -60c0,-23 18,-41 41,-41zm261 0l137 0c23,0 41,18 41,41l0 60c0,22 -18,41 -41,41l-137 0c-23,0 -41,-19 -41,-41l0 -60c0,-23 18,-41 41,-41zm0 -161l137 0c23,0 41,19 41,42l0 59c0,23 -18,41 -41,41l-137 0c-23,0 -41,-18 -41,-41l0 -59c0,-23 18,-42 41,-42zm0 -160l137 0c23,0 41,18 41,41l0 60c0,23 -18,41 -41,41l-137 0c-23,0 -41,-18 -41,-41l0 -60c0,-23 18,-41 41,-41zm-261 160l137 0c23,0 42,19 42,42l0 59c0,23 -19,41 -42,41l-137 0c-23,0 -41,-18 -41,-41l0 -59c0,-23 18,-42 41,-42zm0 -160l137 0c23,0 42,19 42,41l0 60c0,23 -19,41 -42,41l-137 0c-23,0 -41,-18 -41,-41l0 -60c0,-23 18,-41 41,-41zm0 -160l137 0c23,0 42,18 42,41l-1 59c1,23 -18,42 -41,42l-137 0c-23,0 -41,-19 -41,-41l0 -60c0,-23 18,-41 41,-41zm-261 320l138 0c22,0 41,19 41,42l0 59c0,23 -19,41 -41,41l-138 0c-22,0 -41,-18 -41,-41l0 -59c0,-23 19,-42 41,-42zm0 -160l138 0c22,0 41,19 41,41l0 60c0,23 -19,41 -41,41l-138 0c-22,0 -41,-18 -41,-41l0 -60c0,-22 19,-41 41,-41zm0 -160l138 0c22,0 41,18 41,41l0 59c0,23 -19,42 -41,42l-138 0c-22,0 -41,-19 -41,-42l0 -59c0,-23 19,-41 41,-41zm0 -161l138 0c22,0 41,19 41,41l0 60c0,23 -19,41 -41,41l-138 0c-22,0 -41,-18 -41,-41l0 -60c0,-22 19,-41 41,-41zm-260 481l137 0c22,0 41,19 41,42l0 59c0,23 -18,41 -41,41l-137 0c-23,0 -41,-18 -41,-41l0 -59c0,-23 18,-42 41,-42zm0 -160l137 0c22,0 41,19 41,41l0 60c0,23 -18,41 -41,41l-137 0c-23,0 -41,-18 -41,-41l0 -60c-1,-22 18,-41 41,-41zm-261 160l137 0c23,0 41,19 41,42l0 59c0,23 -18,41 -41,41l-137 0c-23,0 -41,-18 -41,-41l0 -59c0,-23 18,-42 41,-42zm0 -160l137 0c23,0 41,19 41,41l0 60c0,23 -18,41 -41,41l-137 0c-23,0 -41,-18 -41,-41l0 -60c0,-22 18,-41 41,-41zm0 -160l137 0c23,0 41,18 41,41l0 60c0,22 -18,41 -41,41l-137 0c-23,0 -41,-19 -41,-41l0 -60c0,-23 18,-41 41,-41z"/></g><text x="0" y="2555" fill="#000000" font-size="5px" font-weight="bold" font-family="'Helvetica Neue', Helvetica, Arial-Unicode, Arial, Sans-serif">Created by Cahayaku</text><text x="0" y="2560" fill="#000000" font-size="5px" font-weight="bold" font-family="'Helvetica Neue', Helvetica, Arial-Unicode, Arial, Sans-serif">from the Noun Project</text></svg>